Coordinates
version=1
nRows=13
nColumns=40
inDegrees=yes

Units are S.I. units (second, meters, Newtons, ...)
Angles are in degrees.

endheader
time	pelvis_tilt	pelvis_list	pelvis_rotation	pelvis_tx	pelvis_ty	pelvis_tz	hip_flexion_r	hip_adduction_r	hip_rotation_r	knee_angle_r	knee_angle_r_beta	ankle_angle_r	subtalar_angle_r	mtp_angle_r	hip_flexion_l	hip_adduction_l	hip_rotation_l	knee_angle_l	knee_angle_l_beta	ankle_angle_l	subtalar_angle_l	mtp_angle_l	lumbar_extension	lumbar_bending	lumbar_rotation	arm_flex_r	arm_add_r	arm_rot_r	elbow_flex_r	pro_sup_r	wrist_flex_r	wrist_dev_r	arm_flex_l	arm_add_l	arm_rot_l	elbow_flex_l	pro_sup_l	wrist_flex_l	wrist_dev_l
     12.51500000	     -5.82506724	     -6.30734471	      3.03582661	      0.95260114	      0.92030207	      0.46386764	      0.15447540	      5.48702452	    -18.07547475	      8.67409504	      8.67409504	     16.77260068	     10.74642986	     -1.93717549	     32.20697968	     -7.55077735	     -4.92558408	     18.58718903	     18.58718903	      2.76290547	    -11.24734899	      8.41908506	     -9.09058678	      8.33126609	      5.65025276	     29.90981760	    -16.11008867	     -6.77612311	     86.15426320	     44.58489893	      0.00000000	      0.00000000	    -11.51773396	     -6.53422378	      0.81032184	     32.78857708	     45.51040400	      0.00000000	      0.00000000
     12.52821429	     -5.80921412	     -6.28354219	      2.69094137	      0.95319614	      0.91928300	      0.46223410	     -0.32970811	      5.29499036	    -17.71630760	      8.96710598	      8.96710598	     17.24245817	     10.76000528	     -1.79707159	     31.83780168	     -7.52890958	     -4.86690912	     19.58578601	     19.58578601	      2.17998925	    -12.50846141	      8.18533000	     -9.00402412	      8.08284273	      5.63270328	     28.86793285	    -16.07585598	     -6.47277850	     85.87378912	     44.58741765	      0.00000000	      0.00000000	    -11.16970409	     -6.74920711	      0.69073310	     33.23278518	     45.53315542	      0.00000000	      0.00000000
     12.54142857	     -5.77348459	     -6.23196275	      2.34408480	      0.95393459	      0.91849091	      0.46053227	     -0.85824504	      5.06960653	    -17.35784718	      9.22171334	      9.22171334	     17.66226994	     10.79160577	     -1.82562842	     31.39480175	     -7.51226829	     -4.93912148	     20.43886397	     20.43886397	      1.92199225	    -13.29710102	      8.10322562	     -8.93072772	      7.76985490	      5.48774939	     27.71346162	    -15.78127828	     -6.17172327	     85.51913887	     44.58648765	      0.00000000	      0.00000000	    -10.71378833	     -6.93913839	      0.61267532	     33.51949950	     45.55077257	      0.00000000	      0.00000000
     12.55464286	     -5.82784935	     -6.20975994	      2.03094451	      0.95442464	      0.91762523	      0.45839810	     -0.92541859	      4.73714348	    -16.93006720	     10.20969855	     10.20969855	     18.79461623	     10.47390341	      0.03235554	     31.15331647	     -7.31529957	     -4.26014901	     21.27567737	     21.27567737	      1.05969902	    -15.40124301	      6.95798673	     -8.77520488	      7.54584989	      5.65175165	     26.41774674	    -16.39085136	     -5.28971020	     84.93378641	     44.62739934	      0.00000000	      0.00000000	    -10.56249000	     -7.13852351	     -0.34456931	     35.22579380	     45.68465084	      0.00000000	      0.00000000
     12.56785714	     -5.81316503	     -6.14403729	      1.76758275	      0.95492748	      0.91720489	      0.45612104	     -1.13739940	      4.36736881	    -16.59357681	     10.97250879	     10.97250879	     19.12656488	     10.24270823	     -0.01711199	     30.91922527	     -7.19532062	     -4.12205983	     22.22530949	     22.22530949	      1.22593210	    -16.14978350	      6.86879945	     -8.71607822	      7.26189225	      5.66469124	     25.05116647	    -16.53979171	     -5.04909501	     83.99528284	     44.65257019	      0.00000000	      0.00000000	     -9.89628143	     -7.35558466	     -0.55434552	     35.60434491	     45.72134032	      0.00000000	      0.00000000
     12.58107143	     -5.80159939	     -6.03706914	      1.54533240	      0.95535491	      0.91713895	      0.45354680	     -1.22119395	      3.89808590	    -16.27182706	     11.95007097	     11.95007097	     19.35836576	      9.89304259	     -0.06325539	     30.65843271	     -7.00592458	     -4.02498198	     23.03243838	     23.03243838	      1.63647267	    -16.71291805	      6.84349865	     -8.67189568	      6.96922794	      5.66703998	     23.59524120	    -16.68810612	     -4.76185859	     82.89459418	     44.68070463	      0.00000000	      0.00000000	     -9.15569207	     -7.57108625	     -0.81599554	     36.08226073	     45.76526534	      0.00000000	      0.00000000
     12.59428571	     -5.81294573	     -5.91993638	      1.35724357	      0.95563251	      0.91739067	      0.45071799	     -1.10064353	      3.34824583	    -15.95632395	     13.23960168	     13.23960168	     19.50614843	      9.43872967	     -0.19239779	     30.40555646	     -6.78882159	     -3.97462499	     23.72945176	     23.72945176	      2.24429257	    -17.04205178	      6.91748664	     -8.62265293	      6.67833624	      5.69207674	     22.07981075	    -16.89818801	     -4.47526922	     81.48789858	     44.71923073	      0.00000000	      0.00000000	     -8.33487875	     -7.76831516	     -1.14594345	     36.65590554	     45.81828684	      0.00000000	      0.00000000
     12.60750000	     -5.79766448	     -5.80441638	      1.21355170	      0.95585720	      0.91800774	      0.44764332	     -0.87693837	      2.74462872	    -15.70203442	     14.75118313	     14.75118313	     19.48023853	      8.93154686	     -0.46365159	     30.06334227	     -6.55502982	     -4.00354467	     24.27195652	     24.27195652	      2.98486936	    -17.21488150	      6.99826902	     -8.60264844	      6.41695838	      5.65175345	     20.52506353	    -17.03837482	     -4.20969564	     79.91515055	     44.76261198	      0.00000000	      0.00000000	     -7.46477434	     -7.96938454	     -1.48198480	     37.24974626	     45.87203253	      0.00000000	      0.00000000
     12.62071429	     -5.86469324	     -5.70975219	      1.10367401	      0.95587140	      0.91882407	      0.44437995	     -0.32910009	      2.09564911	    -15.42315279	     16.64966318	     16.64966318	     19.20848313	      8.22628684	     -1.09313670	     29.74892705	     -6.30424623	     -4.02935514	     24.64947524	     24.64947524	      3.88588513	    -17.23338054	      7.38509940	     -8.47979389	      6.18399825	      5.53738321	     19.09812189	    -17.07149171	     -3.95496856	     77.67863576	     44.83352394	      0.00000000	      0.00000000	     -6.62761898	     -8.13330938	     -2.02183203	     37.98742218	     45.94849626	      0.00000000	      0.00000000
     12.63392857	     -5.92591296	     -5.64220451	      0.99828793	      0.95574554	      0.91991657	      0.44095848	      0.39858475	      1.41762420	    -15.13937527	     18.84040919	     18.84040919	     18.67352066	      7.42101938	     -2.04693932	     29.32578349	     -6.08962258	     -4.19419050	     24.81507697	     24.81507697	      4.67191091	    -17.10721089	      7.54677082	     -8.47038136	      6.04694954	      5.38580369	     17.62702849	    -17.10496137	     -3.73188844	     75.39170951	     44.90505657	      0.00000000	      0.00000000	     -5.71201472	     -8.28737859	     -2.51677925	     38.77859110	     46.01955420	      0.00000000	      0.00000000
     12.64714286	     -5.97983157	     -5.55314429	      0.88722668	      0.95553754	      0.92111646	      0.43755629	      1.31160289	      0.72117971	    -14.68687136	     21.25901377	     21.25901377	     17.21573056	      5.98175384	     -5.13278945	     28.80497227	     -5.86390713	     -4.44860329	     24.83692036	     24.83692036	      5.62459437	    -16.78474378	      7.89747652	     -8.38912744	      5.84737861	      4.77334854	     17.07581116	    -16.56190451	     -3.38684366	     71.29101186	     45.05294329	      0.00000000	      0.00000000	     -5.24238810	     -8.42344253	     -3.75753160	     40.09862679	     46.16352777	      0.00000000	      0.00000000
     12.66035714	     -6.07221198	     -5.52049625	      0.75215666	      0.95516128	      0.92235855	      0.43420822	      2.64738708	     -0.03535587	    -14.34136883	     24.41530165	     24.41530165	     16.24808507	      4.79142293	     -6.28680193	     28.22536835	     -5.73143573	     -4.85270440	     24.65371615	     24.65371615	      6.23030507	    -16.35591609	      7.45353177	     -8.35430960	      5.75130184	      4.92419250	     15.27770001	    -16.80119114	     -3.09741137	     69.39859188	     45.10393120	      0.00000000	      0.00000000	     -4.14799133	     -8.59802777	     -4.10431453	     40.96711890	     46.21735341	      0.00000000	      0.00000000
     12.67357143	     -6.12284683	     -5.52815687	      0.59426717	      0.95468746	      0.92362526	      0.43111073	      4.10359111	     -0.63645369	    -13.63994215	     27.65361188	     27.65361188	     14.16809208	      2.51599034	     -9.80229916	     27.51734827	     -5.70176551	     -5.44480166	     24.31561105	     24.31561105	      6.59029487	    -15.71890867	      6.33406355	     -8.30970141	      5.64587381	      4.53339040	     14.54588113	    -16.29532463	     -3.03661424	     65.33356263	     45.24967018	      0.00000000	      0.00000000	     -3.54150465	     -8.91228470	     -4.70249420	     42.46666691	     46.28832263	      0.00000000	      0.00000000
